<mxfile host="app.diagrams.net" agent="Mozilla/5.0 (Windows NT 10.0; Win64; x64) AppleWebKit/537.36 (KHTML, like Gecko) Chrome/123.0.0.0 Safari/537.36" version="26.0.2">
  <diagram name="Use Case Diagram" id="0">
    <mxGraphModel dx="2442" dy="869" grid="1" gridSize="10" guides="1" tooltips="1" connect="1" arrows="1" fold="1" page="1" pageScale="1" pageWidth="827" pageHeight="1169" math="0" shadow="0">
      <root>
        <mxCell id="0" />
        <mxCell id="1" parent="0" />
        <mxCell id="kACKcHaVqxaq2XwzUE-M-35" style="edgeStyle=orthogonalEdgeStyle;rounded=0;orthogonalLoop=1;jettySize=auto;html=1;exitX=0.5;exitY=0;exitDx=0;exitDy=0;exitPerimeter=0;endArrow=block;endFill=0;" parent="1" source="kACKcHaVqxaq2XwzUE-M-31" target="kACKcHaVqxaq2XwzUE-M-33" edge="1">
          <mxGeometry relative="1" as="geometry" />
        </mxCell>
        <mxCell id="kACKcHaVqxaq2XwzUE-M-31" value="Клиент" style="shape=umlActor;verticalLabelPosition=bottom;verticalAlign=top;html=1;outlineConnect=0;" parent="1" vertex="1">
          <mxGeometry x="404" y="709" width="30" height="60" as="geometry" />
        </mxCell>
        <mxCell id="kACKcHaVqxaq2XwzUE-M-33" value="Администратор" style="shape=umlActor;verticalLabelPosition=bottom;verticalAlign=top;html=1;outlineConnect=0;" parent="1" vertex="1">
          <mxGeometry x="404" y="520" width="30" height="60" as="geometry" />
        </mxCell>
        <mxCell id="kACKcHaVqxaq2XwzUE-M-36" value="Управление счетом" style="ellipse;whiteSpace=wrap;html=1;" parent="1" vertex="1">
          <mxGeometry x="500" y="749" width="90" height="50" as="geometry" />
        </mxCell>
        <mxCell id="kACKcHaVqxaq2XwzUE-M-37" value="" style="endArrow=none;html=1;rounded=0;entryX=0.018;entryY=0.312;entryDx=0;entryDy=0;entryPerimeter=0;" parent="1" source="kACKcHaVqxaq2XwzUE-M-31" target="kACKcHaVqxaq2XwzUE-M-36" edge="1">
          <mxGeometry width="50" height="50" relative="1" as="geometry">
            <mxPoint x="440" y="739" as="sourcePoint" />
            <mxPoint x="480" y="629" as="targetPoint" />
          </mxGeometry>
        </mxCell>
        <mxCell id="7tqEv-kO9C-lXZoiFtLn-31" style="edgeStyle=orthogonalEdgeStyle;rounded=0;orthogonalLoop=1;jettySize=auto;html=1;exitX=0;exitY=0.5;exitDx=0;exitDy=0;entryX=1;entryY=0.5;entryDx=0;entryDy=0;endArrow=block;endFill=0;" edge="1" parent="1" source="kACKcHaVqxaq2XwzUE-M-38" target="kACKcHaVqxaq2XwzUE-M-36">
          <mxGeometry relative="1" as="geometry" />
        </mxCell>
        <mxCell id="kACKcHaVqxaq2XwzUE-M-38" value="Получить текущий баланс счета" style="ellipse;whiteSpace=wrap;html=1;" parent="1" vertex="1">
          <mxGeometry x="614.5" y="749" width="120" height="50" as="geometry" />
        </mxCell>
        <mxCell id="kACKcHaVqxaq2XwzUE-M-39" value="Перевести счет в доллары США" style="ellipse;whiteSpace=wrap;html=1;" parent="1" vertex="1">
          <mxGeometry x="740" y="749" width="120" height="50" as="geometry" />
        </mxCell>
        <mxCell id="kACKcHaVqxaq2XwzUE-M-40" value="Перевести счет в другую валюту (кроме доллара США) непонятный перевод, надо придумать как исправить" style="ellipse;whiteSpace=wrap;html=1;" parent="1" vertex="1">
          <mxGeometry x="590" y="829" width="180" height="100" as="geometry" />
        </mxCell>
        <mxCell id="7tqEv-kO9C-lXZoiFtLn-33" style="edgeStyle=orthogonalEdgeStyle;rounded=0;orthogonalLoop=1;jettySize=auto;html=1;exitX=0.5;exitY=1;exitDx=0;exitDy=0;endArrow=block;endFill=0;" edge="1" parent="1" source="kACKcHaVqxaq2XwzUE-M-41">
          <mxGeometry relative="1" as="geometry">
            <mxPoint x="560" y="800" as="targetPoint" />
            <Array as="points">
              <mxPoint x="876" y="940" />
              <mxPoint x="560" y="940" />
            </Array>
          </mxGeometry>
        </mxCell>
        <mxCell id="kACKcHaVqxaq2XwzUE-M-41" value="Перевести средства с одного счета на другой при условии, что оба счета в одинаковой валюте" style="ellipse;whiteSpace=wrap;html=1;" parent="1" vertex="1">
          <mxGeometry x="780" y="829" width="191" height="100" as="geometry" />
        </mxCell>
        <mxCell id="kACKcHaVqxaq2XwzUE-M-48" value="Управление профилем" style="ellipse;whiteSpace=wrap;html=1;" parent="1" vertex="1">
          <mxGeometry x="318" y="804" width="96" height="50" as="geometry" />
        </mxCell>
        <mxCell id="kACKcHaVqxaq2XwzUE-M-50" value="" style="endArrow=none;html=1;rounded=0;entryX=0.5;entryY=0;entryDx=0;entryDy=0;" parent="1" source="kACKcHaVqxaq2XwzUE-M-31" target="kACKcHaVqxaq2XwzUE-M-48" edge="1">
          <mxGeometry width="50" height="50" relative="1" as="geometry">
            <mxPoint x="550" y="859" as="sourcePoint" />
            <mxPoint x="600" y="809" as="targetPoint" />
          </mxGeometry>
        </mxCell>
        <mxCell id="kACKcHaVqxaq2XwzUE-M-51" value="Получить информацию о профиле клиента" style="ellipse;whiteSpace=wrap;html=1;" parent="1" vertex="1">
          <mxGeometry x="-180" y="824" width="180" height="50" as="geometry" />
        </mxCell>
        <mxCell id="7tqEv-kO9C-lXZoiFtLn-34" style="edgeStyle=orthogonalEdgeStyle;rounded=0;orthogonalLoop=1;jettySize=auto;html=1;exitX=0.5;exitY=1;exitDx=0;exitDy=0;entryX=1;entryY=1;entryDx=0;entryDy=0;endArrow=block;endFill=0;" edge="1" parent="1" source="kACKcHaVqxaq2XwzUE-M-53" target="kACKcHaVqxaq2XwzUE-M-36">
          <mxGeometry relative="1" as="geometry">
            <Array as="points">
              <mxPoint x="933" y="820" />
              <mxPoint x="577" y="820" />
            </Array>
          </mxGeometry>
        </mxCell>
        <mxCell id="kACKcHaVqxaq2XwzUE-M-53" value="Получить все счета клиента по его идентификатору" style="ellipse;whiteSpace=wrap;html=1;" parent="1" vertex="1">
          <mxGeometry x="868" y="734" width="131" height="80" as="geometry" />
        </mxCell>
        <mxCell id="7tqEv-kO9C-lXZoiFtLn-116" style="edgeStyle=orthogonalEdgeStyle;rounded=0;orthogonalLoop=1;jettySize=auto;html=1;exitX=1;exitY=1;exitDx=0;exitDy=0;entryX=0;entryY=0.5;entryDx=0;entryDy=0;endArrow=block;endFill=0;" edge="1" parent="1" source="kACKcHaVqxaq2XwzUE-M-57" target="kACKcHaVqxaq2XwzUE-M-48">
          <mxGeometry relative="1" as="geometry">
            <Array as="points">
              <mxPoint x="59" y="820" />
              <mxPoint x="199" y="820" />
              <mxPoint x="199" y="829" />
            </Array>
          </mxGeometry>
        </mxCell>
        <mxCell id="kACKcHaVqxaq2XwzUE-M-57" value="Удалить профиль клиента" style="ellipse;whiteSpace=wrap;html=1;" parent="1" vertex="1">
          <mxGeometry x="-60" y="774" width="140" height="50" as="geometry" />
        </mxCell>
        <mxCell id="7tqEv-kO9C-lXZoiFtLn-108" style="edgeStyle=orthogonalEdgeStyle;rounded=0;orthogonalLoop=1;jettySize=auto;html=1;exitX=1;exitY=0.5;exitDx=0;exitDy=0;entryX=0;entryY=1;entryDx=0;entryDy=0;endArrow=block;endFill=0;" edge="1" parent="1" source="kACKcHaVqxaq2XwzUE-M-59" target="kACKcHaVqxaq2XwzUE-M-48">
          <mxGeometry relative="1" as="geometry" />
        </mxCell>
        <mxCell id="kACKcHaVqxaq2XwzUE-M-59" value="Регистрация клиента" style="ellipse;whiteSpace=wrap;html=1;" parent="1" vertex="1">
          <mxGeometry x="161" y="831.5" width="140" height="30" as="geometry" />
        </mxCell>
        <mxCell id="kACKcHaVqxaq2XwzUE-M-61" value="Авторизация клиента" style="ellipse;whiteSpace=wrap;html=1;" parent="1" vertex="1">
          <mxGeometry x="15" y="831.5" width="140" height="30" as="geometry" />
        </mxCell>
        <mxCell id="kACKcHaVqxaq2XwzUE-M-64" value="Манипуляции с кредитами" style="ellipse;whiteSpace=wrap;html=1;" parent="1" vertex="1">
          <mxGeometry x="280" y="719" width="101" height="60" as="geometry" />
        </mxCell>
        <mxCell id="kACKcHaVqxaq2XwzUE-M-67" value="" style="endArrow=none;html=1;rounded=0;exitX=1;exitY=0.5;exitDx=0;exitDy=0;" parent="1" source="kACKcHaVqxaq2XwzUE-M-64" target="kACKcHaVqxaq2XwzUE-M-31" edge="1">
          <mxGeometry width="50" height="50" relative="1" as="geometry">
            <mxPoint x="350" y="799" as="sourcePoint" />
            <mxPoint x="400" y="739" as="targetPoint" />
          </mxGeometry>
        </mxCell>
        <mxCell id="kACKcHaVqxaq2XwzUE-M-68" value="Оплатить кредит с счета клиента, к которому кредит привязан" style="ellipse;whiteSpace=wrap;html=1;" parent="1" vertex="1">
          <mxGeometry x="95" y="744" width="180" height="70" as="geometry" />
        </mxCell>
        <mxCell id="kACKcHaVqxaq2XwzUE-M-70" value="Подать заявку на кредит с указанием суммы и типа кредита" style="ellipse;whiteSpace=wrap;html=1;" parent="1" vertex="1">
          <mxGeometry x="95" y="669" width="180" height="70" as="geometry" />
        </mxCell>
        <mxCell id="7tqEv-kO9C-lXZoiFtLn-44" style="edgeStyle=orthogonalEdgeStyle;rounded=0;orthogonalLoop=1;jettySize=auto;html=1;exitX=0.5;exitY=1;exitDx=0;exitDy=0;endArrow=block;endFill=0;" edge="1" parent="1" source="kACKcHaVqxaq2XwzUE-M-72" target="kACKcHaVqxaq2XwzUE-M-64">
          <mxGeometry relative="1" as="geometry" />
        </mxCell>
        <mxCell id="kACKcHaVqxaq2XwzUE-M-72" value="Получить информацию о типах кредитов" style="ellipse;whiteSpace=wrap;html=1;" parent="1" vertex="1">
          <mxGeometry x="223" y="599" width="191" height="70" as="geometry" />
        </mxCell>
        <mxCell id="kACKcHaVqxaq2XwzUE-M-75" value="Получить историю всех транзакций клиента за указанный период времени" style="ellipse;whiteSpace=wrap;html=1;" parent="1" vertex="1">
          <mxGeometry x="434" y="614" width="130" height="95" as="geometry" />
        </mxCell>
        <mxCell id="kACKcHaVqxaq2XwzUE-M-78" value="" style="endArrow=none;html=1;rounded=0;entryX=0.06;entryY=0.739;entryDx=0;entryDy=0;entryPerimeter=0;" parent="1" source="kACKcHaVqxaq2XwzUE-M-31" target="kACKcHaVqxaq2XwzUE-M-75" edge="1">
          <mxGeometry width="50" height="50" relative="1" as="geometry">
            <mxPoint x="441" y="739" as="sourcePoint" />
            <mxPoint x="500" y="679" as="targetPoint" />
          </mxGeometry>
        </mxCell>
        <mxCell id="kACKcHaVqxaq2XwzUE-M-79" value="Получить информацию о курсе обмена валют" style="ellipse;whiteSpace=wrap;html=1;" parent="1" vertex="1">
          <mxGeometry x="571" y="669" width="151" height="70" as="geometry" />
        </mxCell>
        <mxCell id="kACKcHaVqxaq2XwzUE-M-80" value="" style="endArrow=none;html=1;rounded=0;entryX=0;entryY=0.5;entryDx=0;entryDy=0;" parent="1" target="kACKcHaVqxaq2XwzUE-M-79" edge="1">
          <mxGeometry width="50" height="50" relative="1" as="geometry">
            <mxPoint x="441" y="729" as="sourcePoint" />
            <mxPoint x="681" y="719" as="targetPoint" />
          </mxGeometry>
        </mxCell>
        <mxCell id="kACKcHaVqxaq2XwzUE-M-81" value="Манипуляции с запросами в службу поддержки" style="ellipse;whiteSpace=wrap;html=1;" parent="1" vertex="1">
          <mxGeometry x="430" y="809" width="122.5" height="75" as="geometry" />
        </mxCell>
        <mxCell id="kACKcHaVqxaq2XwzUE-M-84" value="" style="endArrow=none;html=1;rounded=0;exitX=0.5;exitY=0;exitDx=0;exitDy=0;" parent="1" source="kACKcHaVqxaq2XwzUE-M-81" target="kACKcHaVqxaq2XwzUE-M-31" edge="1">
          <mxGeometry width="50" height="50" relative="1" as="geometry">
            <mxPoint x="441" y="839" as="sourcePoint" />
            <mxPoint x="491" y="789" as="targetPoint" />
          </mxGeometry>
        </mxCell>
        <mxCell id="7tqEv-kO9C-lXZoiFtLn-117" style="edgeStyle=orthogonalEdgeStyle;rounded=0;orthogonalLoop=1;jettySize=auto;html=1;exitX=1;exitY=0;exitDx=0;exitDy=0;entryX=0.5;entryY=1;entryDx=0;entryDy=0;endArrow=block;endFill=0;" edge="1" parent="1" source="kACKcHaVqxaq2XwzUE-M-85" target="kACKcHaVqxaq2XwzUE-M-81">
          <mxGeometry relative="1" as="geometry" />
        </mxCell>
        <mxCell id="kACKcHaVqxaq2XwzUE-M-85" value="Получить все запросы в службу поддержки, проведенные клиентом за определенный период времени" style="ellipse;whiteSpace=wrap;html=1;" parent="1" vertex="1">
          <mxGeometry x="301" y="900" width="223.25" height="80" as="geometry" />
        </mxCell>
        <mxCell id="7tqEv-kO9C-lXZoiFtLn-119" style="edgeStyle=orthogonalEdgeStyle;rounded=0;orthogonalLoop=1;jettySize=auto;html=1;exitX=1;exitY=0;exitDx=0;exitDy=0;entryX=0;entryY=1;entryDx=0;entryDy=0;endArrow=block;endFill=0;" edge="1" parent="1" source="kACKcHaVqxaq2XwzUE-M-88" target="kACKcHaVqxaq2XwzUE-M-81">
          <mxGeometry relative="1" as="geometry">
            <Array as="points">
              <mxPoint x="274" y="890" />
              <mxPoint x="448" y="890" />
            </Array>
          </mxGeometry>
        </mxCell>
        <mxCell id="kACKcHaVqxaq2XwzUE-M-88" value="Создать запрос в службу поддержки" style="ellipse;whiteSpace=wrap;html=1;" parent="1" vertex="1">
          <mxGeometry x="161" y="905" width="131.37" height="50" as="geometry" />
        </mxCell>
        <mxCell id="7tqEv-kO9C-lXZoiFtLn-87" style="edgeStyle=orthogonalEdgeStyle;rounded=0;orthogonalLoop=1;jettySize=auto;html=1;exitX=0;exitY=0.5;exitDx=0;exitDy=0;entryX=0;entryY=0;entryDx=0;entryDy=0;endArrow=block;endFill=0;" edge="1" parent="1" source="kACKcHaVqxaq2XwzUE-M-91" target="7tqEv-kO9C-lXZoiFtLn-62">
          <mxGeometry relative="1" as="geometry">
            <Array as="points">
              <mxPoint x="605" y="220" />
              <mxPoint x="605" y="342" />
            </Array>
          </mxGeometry>
        </mxCell>
        <mxCell id="kACKcHaVqxaq2XwzUE-M-91" value="Изменить тип кредита" style="ellipse;whiteSpace=wrap;html=1;" parent="1" vertex="1">
          <mxGeometry x="619" y="190" width="101" height="60" as="geometry" />
        </mxCell>
        <mxCell id="kACKcHaVqxaq2XwzUE-M-92" value="Добавить тип кредита" style="ellipse;whiteSpace=wrap;html=1;" parent="1" vertex="1">
          <mxGeometry x="726.25" y="190" width="101" height="60" as="geometry" />
        </mxCell>
        <mxCell id="kACKcHaVqxaq2XwzUE-M-93" value="Удалить тип кредита" style="ellipse;whiteSpace=wrap;html=1;" parent="1" vertex="1">
          <mxGeometry x="680" y="344" width="101" height="60" as="geometry" />
        </mxCell>
        <mxCell id="kACKcHaVqxaq2XwzUE-M-97" value="Одобрить или отклонить заявку на получение кредита" style="ellipse;whiteSpace=wrap;html=1;" parent="1" vertex="1">
          <mxGeometry x="818" y="275" width="172" height="60" as="geometry" />
        </mxCell>
        <mxCell id="kACKcHaVqxaq2XwzUE-M-108" value="Изменить статус банковской карты по ее идентификатору (заблокирована/доступна)" style="ellipse;whiteSpace=wrap;html=1;" parent="1" vertex="1">
          <mxGeometry x="1" y="290" width="179" height="85" as="geometry" />
        </mxCell>
        <mxCell id="kACKcHaVqxaq2XwzUE-M-119" value="Получить список всех заявок на кредиты" style="ellipse;whiteSpace=wrap;html=1;" parent="1" vertex="1">
          <mxGeometry x="651" y="275" width="159" height="60" as="geometry" />
        </mxCell>
        <mxCell id="kACKcHaVqxaq2XwzUE-M-121" value="Манипуляции со счетами" style="ellipse;whiteSpace=wrap;html=1;" parent="1" vertex="1">
          <mxGeometry x="211" y="285" width="110" height="70" as="geometry" />
        </mxCell>
        <mxCell id="7tqEv-kO9C-lXZoiFtLn-95" style="edgeStyle=orthogonalEdgeStyle;rounded=0;orthogonalLoop=1;jettySize=auto;html=1;exitX=1;exitY=0.5;exitDx=0;exitDy=0;entryX=0;entryY=0;entryDx=0;entryDy=0;endArrow=block;endFill=0;" edge="1" parent="1" source="kACKcHaVqxaq2XwzUE-M-122" target="kACKcHaVqxaq2XwzUE-M-121">
          <mxGeometry relative="1" as="geometry" />
        </mxCell>
        <mxCell id="kACKcHaVqxaq2XwzUE-M-122" value="Добавить счет клиенту" style="ellipse;whiteSpace=wrap;html=1;" parent="1" vertex="1">
          <mxGeometry x="80" y="140" width="110" height="45" as="geometry" />
        </mxCell>
        <mxCell id="kACKcHaVqxaq2XwzUE-M-123" value="Закрыть счет клиенту" style="ellipse;whiteSpace=wrap;html=1;" parent="1" vertex="1">
          <mxGeometry x="150" y="100" width="110" height="40" as="geometry" />
        </mxCell>
        <mxCell id="kACKcHaVqxaq2XwzUE-M-126" value="Получить информацию о банковской карте по ее идентификатору" style="ellipse;whiteSpace=wrap;html=1;" parent="1" vertex="1">
          <mxGeometry x="-164.5" y="350" width="189" height="64" as="geometry" />
        </mxCell>
        <mxCell id="kACKcHaVqxaq2XwzUE-M-132" value="Манипуляции с валютами" style="ellipse;whiteSpace=wrap;html=1;" parent="1" vertex="1">
          <mxGeometry x="-10" y="504.5" width="110" height="70" as="geometry" />
        </mxCell>
        <mxCell id="7tqEv-kO9C-lXZoiFtLn-81" style="edgeStyle=orthogonalEdgeStyle;rounded=0;orthogonalLoop=1;jettySize=auto;html=1;exitX=0.5;exitY=0;exitDx=0;exitDy=0;entryX=1;entryY=0;entryDx=0;entryDy=0;endArrow=block;endFill=0;" edge="1" parent="1" source="kACKcHaVqxaq2XwzUE-M-139" target="7tqEv-kO9C-lXZoiFtLn-62">
          <mxGeometry relative="1" as="geometry">
            <Array as="points">
              <mxPoint x="997" y="410" />
              <mxPoint x="676" y="410" />
            </Array>
          </mxGeometry>
        </mxCell>
        <mxCell id="kACKcHaVqxaq2XwzUE-M-139" value="Получить информацию о кредитах клиента по идентификатору клиента" style="ellipse;whiteSpace=wrap;html=1;" parent="1" vertex="1">
          <mxGeometry x="900" y="430.5" width="194.5" height="75.5" as="geometry" />
        </mxCell>
        <mxCell id="7tqEv-kO9C-lXZoiFtLn-93" style="edgeStyle=orthogonalEdgeStyle;rounded=0;orthogonalLoop=1;jettySize=auto;html=1;exitX=1;exitY=1;exitDx=0;exitDy=0;entryX=0;entryY=0.5;entryDx=0;entryDy=0;endArrow=block;endFill=0;" edge="1" parent="1" source="kACKcHaVqxaq2XwzUE-M-142" target="kACKcHaVqxaq2XwzUE-M-121">
          <mxGeometry relative="1" as="geometry" />
        </mxCell>
        <mxCell id="kACKcHaVqxaq2XwzUE-M-142" value="Получить информацию о транзакции по ее идентификатору" style="ellipse;whiteSpace=wrap;html=1;" parent="1" vertex="1">
          <mxGeometry x="-10" y="185" width="160" height="90" as="geometry" />
        </mxCell>
        <mxCell id="kACKcHaVqxaq2XwzUE-M-144" value="Управление профилем клиентов" style="ellipse;whiteSpace=wrap;html=1;" parent="1" vertex="1">
          <mxGeometry x="344" y="370.5" width="110" height="70" as="geometry" />
        </mxCell>
        <mxCell id="7tqEv-kO9C-lXZoiFtLn-104" style="edgeStyle=orthogonalEdgeStyle;rounded=0;orthogonalLoop=1;jettySize=auto;html=1;exitX=0;exitY=1;exitDx=0;exitDy=0;entryX=0;entryY=0;entryDx=0;entryDy=0;endArrow=block;endFill=0;" edge="1" parent="1" source="kACKcHaVqxaq2XwzUE-M-145" target="kACKcHaVqxaq2XwzUE-M-144">
          <mxGeometry relative="1" as="geometry">
            <Array as="points">
              <mxPoint x="426" y="240" />
              <mxPoint x="360" y="240" />
            </Array>
          </mxGeometry>
        </mxCell>
        <mxCell id="kACKcHaVqxaq2XwzUE-M-145" value="Получить список всех клиентов и информацию о них" style="ellipse;whiteSpace=wrap;html=1;" parent="1" vertex="1">
          <mxGeometry x="405.5" y="160" width="140" height="70" as="geometry" />
        </mxCell>
        <mxCell id="kACKcHaVqxaq2XwzUE-M-147" value="Получение информации о профиле клиентов" style="ellipse;whiteSpace=wrap;html=1;" parent="1" vertex="1">
          <mxGeometry x="401.5" y="240" width="148" height="56" as="geometry" />
        </mxCell>
        <mxCell id="7tqEv-kO9C-lXZoiFtLn-56" style="edgeStyle=orthogonalEdgeStyle;rounded=0;orthogonalLoop=1;jettySize=auto;html=1;exitX=0.5;exitY=0;exitDx=0;exitDy=0;entryX=0.5;entryY=1;entryDx=0;entryDy=0;endArrow=block;endFill=0;" edge="1" parent="1" source="kACKcHaVqxaq2XwzUE-M-153" target="kACKcHaVqxaq2XwzUE-M-132">
          <mxGeometry relative="1" as="geometry" />
        </mxCell>
        <mxCell id="kACKcHaVqxaq2XwzUE-M-153" value="Изменить информацию о валюте" style="ellipse;whiteSpace=wrap;html=1;" parent="1" vertex="1">
          <mxGeometry x="-10" y="590.5" width="110" height="70" as="geometry" />
        </mxCell>
        <mxCell id="7tqEv-kO9C-lXZoiFtLn-57" style="edgeStyle=orthogonalEdgeStyle;rounded=0;orthogonalLoop=1;jettySize=auto;html=1;exitX=0.5;exitY=0;exitDx=0;exitDy=0;entryX=0;entryY=1;entryDx=0;entryDy=0;endArrow=block;endFill=0;" edge="1" parent="1" source="kACKcHaVqxaq2XwzUE-M-159" target="kACKcHaVqxaq2XwzUE-M-132">
          <mxGeometry relative="1" as="geometry">
            <Array as="points">
              <mxPoint x="-65" y="590" />
              <mxPoint x="6" y="590" />
            </Array>
          </mxGeometry>
        </mxCell>
        <mxCell id="kACKcHaVqxaq2XwzUE-M-159" value="Вывод списка валют" style="ellipse;whiteSpace=wrap;html=1;" parent="1" vertex="1">
          <mxGeometry x="-120" y="629" width="110" height="70" as="geometry" />
        </mxCell>
        <mxCell id="7tqEv-kO9C-lXZoiFtLn-61" style="edgeStyle=orthogonalEdgeStyle;rounded=0;orthogonalLoop=1;jettySize=auto;html=1;exitX=1;exitY=0.5;exitDx=0;exitDy=0;entryX=0;entryY=0.5;entryDx=0;entryDy=0;endArrow=block;endFill=0;" edge="1" parent="1" source="7tqEv-kO9C-lXZoiFtLn-2" target="kACKcHaVqxaq2XwzUE-M-132">
          <mxGeometry relative="1" as="geometry" />
        </mxCell>
        <mxCell id="7tqEv-kO9C-lXZoiFtLn-2" value="Добавить курс обмена для любой валюты (кроме доллара США)" style="ellipse;whiteSpace=wrap;html=1;" vertex="1" parent="1">
          <mxGeometry x="-190" y="489.5" width="150" height="100" as="geometry" />
        </mxCell>
        <mxCell id="7tqEv-kO9C-lXZoiFtLn-55" style="edgeStyle=orthogonalEdgeStyle;rounded=0;orthogonalLoop=1;jettySize=auto;html=1;exitX=0;exitY=0.5;exitDx=0;exitDy=0;entryX=1;entryY=1;entryDx=0;entryDy=0;endArrow=block;endFill=0;" edge="1" parent="1" source="7tqEv-kO9C-lXZoiFtLn-4" target="kACKcHaVqxaq2XwzUE-M-132">
          <mxGeometry relative="1" as="geometry" />
        </mxCell>
        <mxCell id="7tqEv-kO9C-lXZoiFtLn-4" value="Вывод курса обмена валют" style="ellipse;whiteSpace=wrap;html=1;" vertex="1" parent="1">
          <mxGeometry x="120" y="554" width="110" height="70" as="geometry" />
        </mxCell>
        <mxCell id="7tqEv-kO9C-lXZoiFtLn-101" style="edgeStyle=orthogonalEdgeStyle;rounded=0;orthogonalLoop=1;jettySize=auto;html=1;exitX=0;exitY=0.5;exitDx=0;exitDy=0;endArrow=block;endFill=0;" edge="1" parent="1" source="7tqEv-kO9C-lXZoiFtLn-6">
          <mxGeometry relative="1" as="geometry">
            <mxPoint x="400" y="370" as="targetPoint" />
          </mxGeometry>
        </mxCell>
        <mxCell id="7tqEv-kO9C-lXZoiFtLn-6" value="Удалить профиль клиента" style="ellipse;whiteSpace=wrap;html=1;" vertex="1" parent="1">
          <mxGeometry x="411" y="308" width="129" height="49" as="geometry" />
        </mxCell>
        <mxCell id="7tqEv-kO9C-lXZoiFtLn-9" value="Просмотреть все счета клиента по его идентификатору" style="ellipse;whiteSpace=wrap;html=1;" vertex="1" parent="1">
          <mxGeometry x="251" y="140" width="130" height="80" as="geometry" />
        </mxCell>
        <mxCell id="7tqEv-kO9C-lXZoiFtLn-84" style="edgeStyle=orthogonalEdgeStyle;rounded=0;orthogonalLoop=1;jettySize=auto;html=1;exitX=0;exitY=0;exitDx=0;exitDy=0;entryX=0.5;entryY=0;entryDx=0;entryDy=0;endArrow=block;endFill=0;" edge="1" parent="1" source="7tqEv-kO9C-lXZoiFtLn-18" target="7tqEv-kO9C-lXZoiFtLn-62">
          <mxGeometry relative="1" as="geometry">
            <Array as="points">
              <mxPoint x="813" y="340" />
              <mxPoint x="641" y="340" />
            </Array>
          </mxGeometry>
        </mxCell>
        <mxCell id="7tqEv-kO9C-lXZoiFtLn-18" value="Получить информацию о типах кредитов" style="ellipse;whiteSpace=wrap;html=1;" vertex="1" parent="1">
          <mxGeometry x="790" y="342" width="159" height="60" as="geometry" />
        </mxCell>
        <mxCell id="7tqEv-kO9C-lXZoiFtLn-20" value="Получение данных о платежных сервисах" style="ellipse;whiteSpace=wrap;html=1;" vertex="1" parent="1">
          <mxGeometry x="230" y="544" width="142.25" height="49" as="geometry" />
        </mxCell>
        <mxCell id="7tqEv-kO9C-lXZoiFtLn-21" value="" style="endArrow=none;html=1;rounded=0;exitX=1;exitY=0.5;exitDx=0;exitDy=0;" edge="1" parent="1" source="7tqEv-kO9C-lXZoiFtLn-20" target="kACKcHaVqxaq2XwzUE-M-33">
          <mxGeometry width="50" height="50" relative="1" as="geometry">
            <mxPoint x="370" y="540" as="sourcePoint" />
            <mxPoint x="400" y="460" as="targetPoint" />
          </mxGeometry>
        </mxCell>
        <mxCell id="7tqEv-kO9C-lXZoiFtLn-22" value="Манипуляции со службой поддержки" style="ellipse;whiteSpace=wrap;html=1;" vertex="1" parent="1">
          <mxGeometry x="454" y="520.5" width="110" height="70" as="geometry" />
        </mxCell>
        <mxCell id="7tqEv-kO9C-lXZoiFtLn-24" value="Получить все запросы в службу поддержки, проведенные клиентом за определенный период времени" style="ellipse;whiteSpace=wrap;html=1;" vertex="1" parent="1">
          <mxGeometry x="590" y="516" width="220" height="68" as="geometry" />
        </mxCell>
        <mxCell id="7tqEv-kO9C-lXZoiFtLn-26" value="Вывод запросов в службу поддержки" style="ellipse;whiteSpace=wrap;html=1;" vertex="1" parent="1">
          <mxGeometry x="564" y="582" width="110" height="68" as="geometry" />
        </mxCell>
        <mxCell id="7tqEv-kO9C-lXZoiFtLn-30" style="edgeStyle=orthogonalEdgeStyle;rounded=0;orthogonalLoop=1;jettySize=auto;html=1;exitX=0.5;exitY=1;exitDx=0;exitDy=0;endArrow=block;endFill=0;entryX=1;entryY=1;entryDx=0;entryDy=0;" edge="1" parent="1" source="kACKcHaVqxaq2XwzUE-M-39" target="kACKcHaVqxaq2XwzUE-M-36">
          <mxGeometry relative="1" as="geometry">
            <mxPoint x="625" y="784" as="sourcePoint" />
            <mxPoint x="600" y="784" as="targetPoint" />
            <Array as="points">
              <mxPoint x="800" y="810" />
              <mxPoint x="600" y="810" />
              <mxPoint x="600" y="792" />
            </Array>
          </mxGeometry>
        </mxCell>
        <mxCell id="7tqEv-kO9C-lXZoiFtLn-32" style="edgeStyle=orthogonalEdgeStyle;rounded=0;orthogonalLoop=1;jettySize=auto;html=1;exitX=0;exitY=0.5;exitDx=0;exitDy=0;entryX=0.776;entryY=0.934;entryDx=0;entryDy=0;entryPerimeter=0;endArrow=block;endFill=0;" edge="1" parent="1" source="kACKcHaVqxaq2XwzUE-M-40" target="kACKcHaVqxaq2XwzUE-M-36">
          <mxGeometry relative="1" as="geometry" />
        </mxCell>
        <mxCell id="7tqEv-kO9C-lXZoiFtLn-48" style="edgeStyle=orthogonalEdgeStyle;rounded=0;orthogonalLoop=1;jettySize=auto;html=1;exitX=1;exitY=0.5;exitDx=0;exitDy=0;entryX=0.406;entryY=0.997;entryDx=0;entryDy=0;entryPerimeter=0;endArrow=block;endFill=0;" edge="1" parent="1" source="kACKcHaVqxaq2XwzUE-M-68" target="kACKcHaVqxaq2XwzUE-M-64">
          <mxGeometry relative="1" as="geometry" />
        </mxCell>
        <mxCell id="7tqEv-kO9C-lXZoiFtLn-49" style="edgeStyle=orthogonalEdgeStyle;rounded=0;orthogonalLoop=1;jettySize=auto;html=1;exitX=1;exitY=0.5;exitDx=0;exitDy=0;entryX=0.255;entryY=0.074;entryDx=0;entryDy=0;entryPerimeter=0;endArrow=block;endFill=0;" edge="1" parent="1" source="kACKcHaVqxaq2XwzUE-M-70" target="kACKcHaVqxaq2XwzUE-M-64">
          <mxGeometry relative="1" as="geometry" />
        </mxCell>
        <mxCell id="7tqEv-kO9C-lXZoiFtLn-50" style="edgeStyle=orthogonalEdgeStyle;rounded=0;orthogonalLoop=1;jettySize=auto;html=1;exitX=0;exitY=0;exitDx=0;exitDy=0;entryX=0.91;entryY=0.773;entryDx=0;entryDy=0;entryPerimeter=0;endArrow=block;endFill=0;" edge="1" parent="1" source="7tqEv-kO9C-lXZoiFtLn-26" target="7tqEv-kO9C-lXZoiFtLn-22">
          <mxGeometry relative="1" as="geometry" />
        </mxCell>
        <mxCell id="7tqEv-kO9C-lXZoiFtLn-51" style="edgeStyle=orthogonalEdgeStyle;rounded=0;orthogonalLoop=1;jettySize=auto;html=1;exitX=0;exitY=0.5;exitDx=0;exitDy=0;entryX=0.997;entryY=0.43;entryDx=0;entryDy=0;entryPerimeter=0;endArrow=block;endFill=0;" edge="1" parent="1" source="7tqEv-kO9C-lXZoiFtLn-24" target="7tqEv-kO9C-lXZoiFtLn-22">
          <mxGeometry relative="1" as="geometry" />
        </mxCell>
        <mxCell id="7tqEv-kO9C-lXZoiFtLn-52" value="" style="endArrow=none;html=1;rounded=0;entryX=0;entryY=0.5;entryDx=0;entryDy=0;" edge="1" parent="1" source="kACKcHaVqxaq2XwzUE-M-33" target="7tqEv-kO9C-lXZoiFtLn-22">
          <mxGeometry width="50" height="50" relative="1" as="geometry">
            <mxPoint x="382" y="566" as="sourcePoint" />
            <mxPoint x="414" y="562" as="targetPoint" />
          </mxGeometry>
        </mxCell>
        <mxCell id="7tqEv-kO9C-lXZoiFtLn-53" value="" style="endArrow=none;html=1;rounded=0;exitX=1;exitY=0.5;exitDx=0;exitDy=0;" edge="1" parent="1" source="kACKcHaVqxaq2XwzUE-M-132">
          <mxGeometry width="50" height="50" relative="1" as="geometry">
            <mxPoint x="130" y="540" as="sourcePoint" />
            <mxPoint x="392.63" y="540" as="targetPoint" />
          </mxGeometry>
        </mxCell>
        <mxCell id="7tqEv-kO9C-lXZoiFtLn-62" value="Манипуляции с кредитами" style="ellipse;whiteSpace=wrap;html=1;" vertex="1" parent="1">
          <mxGeometry x="590" y="434.5" width="101" height="60" as="geometry" />
        </mxCell>
        <mxCell id="7tqEv-kO9C-lXZoiFtLn-64" style="edgeStyle=orthogonalEdgeStyle;rounded=0;orthogonalLoop=1;jettySize=auto;html=1;exitX=0;exitY=0.5;exitDx=0;exitDy=0;entryX=1;entryY=0.5;entryDx=0;entryDy=0;endArrow=block;endFill=0;" edge="1" parent="1" source="7tqEv-kO9C-lXZoiFtLn-63" target="7tqEv-kO9C-lXZoiFtLn-62">
          <mxGeometry relative="1" as="geometry" />
        </mxCell>
        <mxCell id="7tqEv-kO9C-lXZoiFtLn-63" value="Получение данных о всех кредитах" style="ellipse;whiteSpace=wrap;html=1;" vertex="1" parent="1">
          <mxGeometry x="718.5" y="434.5" width="172" height="60" as="geometry" />
        </mxCell>
        <mxCell id="7tqEv-kO9C-lXZoiFtLn-65" value="Манипуляции с банковскими картами" style="ellipse;whiteSpace=wrap;html=1;" vertex="1" parent="1">
          <mxGeometry x="280" y="446" width="110" height="70" as="geometry" />
        </mxCell>
        <mxCell id="7tqEv-kO9C-lXZoiFtLn-73" style="edgeStyle=orthogonalEdgeStyle;rounded=0;orthogonalLoop=1;jettySize=auto;html=1;exitX=0.5;exitY=1;exitDx=0;exitDy=0;entryX=0;entryY=1;entryDx=0;entryDy=0;endArrow=block;endFill=0;" edge="1" parent="1" source="7tqEv-kO9C-lXZoiFtLn-66" target="7tqEv-kO9C-lXZoiFtLn-65">
          <mxGeometry relative="1" as="geometry">
            <Array as="points">
              <mxPoint x="205" y="506" />
              <mxPoint x="280" y="506" />
            </Array>
          </mxGeometry>
        </mxCell>
        <mxCell id="7tqEv-kO9C-lXZoiFtLn-66" value="Добавить банковскую карту" style="ellipse;whiteSpace=wrap;html=1;" vertex="1" parent="1">
          <mxGeometry x="150" y="419.5" width="110" height="70" as="geometry" />
        </mxCell>
        <mxCell id="7tqEv-kO9C-lXZoiFtLn-74" style="edgeStyle=orthogonalEdgeStyle;rounded=0;orthogonalLoop=1;jettySize=auto;html=1;exitX=1;exitY=1;exitDx=0;exitDy=0;entryX=0.5;entryY=1;entryDx=0;entryDy=0;endArrow=block;endFill=0;" edge="1" parent="1" source="7tqEv-kO9C-lXZoiFtLn-67" target="7tqEv-kO9C-lXZoiFtLn-65">
          <mxGeometry relative="1" as="geometry">
            <Array as="points">
              <mxPoint x="124" y="516" />
              <mxPoint x="210" y="516" />
              <mxPoint x="210" y="530" />
              <mxPoint x="335" y="530" />
            </Array>
          </mxGeometry>
        </mxCell>
        <mxCell id="7tqEv-kO9C-lXZoiFtLn-67" value="Удалить банковскую карту" style="ellipse;whiteSpace=wrap;html=1;" vertex="1" parent="1">
          <mxGeometry x="30" y="419.5" width="110" height="70" as="geometry" />
        </mxCell>
        <mxCell id="7tqEv-kO9C-lXZoiFtLn-77" style="edgeStyle=orthogonalEdgeStyle;rounded=0;orthogonalLoop=1;jettySize=auto;html=1;exitX=1;exitY=0;exitDx=0;exitDy=0;entryX=0.097;entryY=0.185;entryDx=0;entryDy=0;entryPerimeter=0;endArrow=block;endFill=0;" edge="1" parent="1">
          <mxGeometry relative="1" as="geometry">
            <mxPoint x="0.04929903375711997" y="432.7980162445215" as="sourcePoint" />
            <mxPoint x="292.37000000000006" y="458.94000000000005" as="targetPoint" />
            <Array as="points">
              <mxPoint x="-0.30000000000000004" y="409.99" />
              <mxPoint x="291.7" y="409.99" />
              <mxPoint x="291.7" y="458.99" />
            </Array>
          </mxGeometry>
        </mxCell>
        <mxCell id="7tqEv-kO9C-lXZoiFtLn-68" value="Получить информацию о всех банковских картах клиента" style="ellipse;whiteSpace=wrap;html=1;" vertex="1" parent="1">
          <mxGeometry x="-154.5" y="424" width="179" height="60" as="geometry" />
        </mxCell>
        <mxCell id="7tqEv-kO9C-lXZoiFtLn-79" style="edgeStyle=orthogonalEdgeStyle;rounded=0;orthogonalLoop=1;jettySize=auto;html=1;exitX=1;exitY=0.5;exitDx=0;exitDy=0;entryX=0.205;entryY=0.085;entryDx=0;entryDy=0;entryPerimeter=0;endArrow=block;endFill=0;" edge="1" parent="1" source="kACKcHaVqxaq2XwzUE-M-126" target="7tqEv-kO9C-lXZoiFtLn-65">
          <mxGeometry relative="1" as="geometry" />
        </mxCell>
        <mxCell id="7tqEv-kO9C-lXZoiFtLn-80" style="edgeStyle=orthogonalEdgeStyle;rounded=0;orthogonalLoop=1;jettySize=auto;html=1;exitX=1;exitY=1;exitDx=0;exitDy=0;entryX=0.297;entryY=0.052;entryDx=0;entryDy=0;entryPerimeter=0;endArrow=block;endFill=0;" edge="1" parent="1" source="kACKcHaVqxaq2XwzUE-M-108" target="7tqEv-kO9C-lXZoiFtLn-65">
          <mxGeometry relative="1" as="geometry" />
        </mxCell>
        <mxCell id="7tqEv-kO9C-lXZoiFtLn-83" style="edgeStyle=orthogonalEdgeStyle;rounded=0;orthogonalLoop=1;jettySize=auto;html=1;exitX=0;exitY=0.5;exitDx=0;exitDy=0;entryX=0.679;entryY=0.031;entryDx=0;entryDy=0;entryPerimeter=0;endArrow=block;endFill=0;" edge="1" parent="1" source="kACKcHaVqxaq2XwzUE-M-93" target="7tqEv-kO9C-lXZoiFtLn-62">
          <mxGeometry relative="1" as="geometry">
            <mxPoint x="659" y="430" as="targetPoint" />
          </mxGeometry>
        </mxCell>
        <mxCell id="7tqEv-kO9C-lXZoiFtLn-85" style="edgeStyle=orthogonalEdgeStyle;rounded=0;orthogonalLoop=1;jettySize=auto;html=1;exitX=0;exitY=0.5;exitDx=0;exitDy=0;entryX=0.389;entryY=0.049;entryDx=0;entryDy=0;entryPerimeter=0;endArrow=block;endFill=0;" edge="1" parent="1" source="kACKcHaVqxaq2XwzUE-M-119" target="7tqEv-kO9C-lXZoiFtLn-62">
          <mxGeometry relative="1" as="geometry" />
        </mxCell>
        <mxCell id="7tqEv-kO9C-lXZoiFtLn-86" style="edgeStyle=orthogonalEdgeStyle;rounded=0;orthogonalLoop=1;jettySize=auto;html=1;exitX=0;exitY=0;exitDx=0;exitDy=0;entryX=0.244;entryY=0.085;entryDx=0;entryDy=0;entryPerimeter=0;endArrow=block;endFill=0;" edge="1" parent="1" source="kACKcHaVqxaq2XwzUE-M-97" target="7tqEv-kO9C-lXZoiFtLn-62">
          <mxGeometry relative="1" as="geometry">
            <Array as="points">
              <mxPoint x="843" y="260" />
              <mxPoint x="615" y="260" />
            </Array>
          </mxGeometry>
        </mxCell>
        <mxCell id="7tqEv-kO9C-lXZoiFtLn-88" style="edgeStyle=orthogonalEdgeStyle;rounded=0;orthogonalLoop=1;jettySize=auto;html=1;exitX=0.5;exitY=0;exitDx=0;exitDy=0;entryX=0.059;entryY=0.231;entryDx=0;entryDy=0;entryPerimeter=0;endArrow=block;endFill=0;" edge="1" parent="1" source="kACKcHaVqxaq2XwzUE-M-92" target="7tqEv-kO9C-lXZoiFtLn-62">
          <mxGeometry relative="1" as="geometry" />
        </mxCell>
        <mxCell id="7tqEv-kO9C-lXZoiFtLn-97" style="edgeStyle=orthogonalEdgeStyle;rounded=0;orthogonalLoop=1;jettySize=auto;html=1;exitX=0.5;exitY=1;exitDx=0;exitDy=0;entryX=0.597;entryY=0.008;entryDx=0;entryDy=0;entryPerimeter=0;endArrow=block;endFill=0;" edge="1" parent="1" source="7tqEv-kO9C-lXZoiFtLn-9" target="kACKcHaVqxaq2XwzUE-M-121">
          <mxGeometry relative="1" as="geometry">
            <mxPoint x="276" y="280" as="targetPoint" />
          </mxGeometry>
        </mxCell>
        <mxCell id="7tqEv-kO9C-lXZoiFtLn-98" value="" style="endArrow=none;html=1;rounded=0;exitX=0.5;exitY=1;exitDx=0;exitDy=0;" edge="1" parent="1" source="kACKcHaVqxaq2XwzUE-M-144">
          <mxGeometry width="50" height="50" relative="1" as="geometry">
            <mxPoint x="444" y="562" as="sourcePoint" />
            <mxPoint x="410" y="510" as="targetPoint" />
          </mxGeometry>
        </mxCell>
        <mxCell id="7tqEv-kO9C-lXZoiFtLn-100" style="edgeStyle=orthogonalEdgeStyle;rounded=0;orthogonalLoop=1;jettySize=auto;html=1;exitX=1;exitY=1;exitDx=0;exitDy=0;entryX=0.298;entryY=0.048;entryDx=0;entryDy=0;entryPerimeter=0;endArrow=block;endFill=0;" edge="1" parent="1" source="kACKcHaVqxaq2XwzUE-M-123" target="kACKcHaVqxaq2XwzUE-M-121">
          <mxGeometry relative="1" as="geometry" />
        </mxCell>
        <mxCell id="7tqEv-kO9C-lXZoiFtLn-102" style="edgeStyle=orthogonalEdgeStyle;rounded=0;orthogonalLoop=1;jettySize=auto;html=1;exitX=0;exitY=0.5;exitDx=0;exitDy=0;entryX=0.336;entryY=0.057;entryDx=0;entryDy=0;entryPerimeter=0;endArrow=block;endFill=0;" edge="1" parent="1" source="kACKcHaVqxaq2XwzUE-M-147" target="kACKcHaVqxaq2XwzUE-M-144">
          <mxGeometry relative="1" as="geometry" />
        </mxCell>
        <mxCell id="7tqEv-kO9C-lXZoiFtLn-105" value="" style="endArrow=none;html=1;rounded=0;exitX=0;exitY=0.5;exitDx=0;exitDy=0;" edge="1" parent="1" source="7tqEv-kO9C-lXZoiFtLn-62">
          <mxGeometry width="50" height="50" relative="1" as="geometry">
            <mxPoint x="409" y="451" as="sourcePoint" />
            <mxPoint x="430" y="520" as="targetPoint" />
          </mxGeometry>
        </mxCell>
        <mxCell id="7tqEv-kO9C-lXZoiFtLn-109" style="edgeStyle=orthogonalEdgeStyle;rounded=0;orthogonalLoop=1;jettySize=auto;html=1;exitX=0.5;exitY=1;exitDx=0;exitDy=0;entryX=0.439;entryY=1.016;entryDx=0;entryDy=0;entryPerimeter=0;endArrow=block;endFill=0;" edge="1" parent="1" source="kACKcHaVqxaq2XwzUE-M-61" target="kACKcHaVqxaq2XwzUE-M-48">
          <mxGeometry relative="1" as="geometry">
            <Array as="points">
              <mxPoint x="85" y="870" />
              <mxPoint x="360" y="870" />
            </Array>
          </mxGeometry>
        </mxCell>
        <mxCell id="7tqEv-kO9C-lXZoiFtLn-111" style="edgeStyle=orthogonalEdgeStyle;rounded=0;orthogonalLoop=1;jettySize=auto;html=1;exitX=0.5;exitY=1;exitDx=0;exitDy=0;entryX=0.561;entryY=0.992;entryDx=0;entryDy=0;entryPerimeter=0;endArrow=block;endFill=0;" edge="1" parent="1" source="kACKcHaVqxaq2XwzUE-M-51" target="kACKcHaVqxaq2XwzUE-M-48">
          <mxGeometry relative="1" as="geometry">
            <Array as="points">
              <mxPoint x="-90" y="880" />
              <mxPoint x="372" y="880" />
            </Array>
          </mxGeometry>
        </mxCell>
      </root>
    </mxGraphModel>
  </diagram>
</mxfile>
